<?xml version="1.0" encoding="UTF-8" standalone="no"?>
<svg
   xmlns:dc="http://purl.org/dc/elements/1.1/"
   xmlns:cc="http://creativecommons.org/ns#"
   xmlns:rdf="http://www.w3.org/1999/02/22-rdf-syntax-ns#"
   xmlns:svg="http://www.w3.org/2000/svg"
   xmlns="http://www.w3.org/2000/svg"
   xmlns:xlink="http://www.w3.org/1999/xlink"
   xmlns:sodipodi="http://sodipodi.sourceforge.net/DTD/sodipodi-0.dtd"
   xmlns:inkscape="http://www.inkscape.org/namespaces/inkscape"
   version="1.1"
   x="0px"
   y="0px"
   viewBox="0 0 752 336"
   style="enable-background:new 0 0 752 336;"
   xml:space="preserve"
   id="svg1081"
   sodipodi:docname="tw5-firebase.svg"
   inkscape:version="1.0.1 (c497b03c, 2020-09-10)"
   inkscape:export-filename="/Users/neumark/git/tw5-firebase/logo/tw5-firebase.png"
   inkscape:export-xdpi="96"
   inkscape:export-ydpi="96"><metadata
   id="metadata1087"><rdf:RDF><cc:Work
       rdf:about=""><dc:format>image/svg+xml</dc:format><dc:type
         rdf:resource="http://purl.org/dc/dcmitype/StillImage" /><dc:title></dc:title></cc:Work></rdf:RDF></metadata><defs
   id="defs1085">
	
	

		
		
	<clipPath
   id="SVGID_2_"><use
     xlink:href="#SVGID_1_"
     style="overflow:visible"
     id="use988"
     x="0"
     y="0"
     width="100%"
     height="100%" /></clipPath><linearGradient
   id="SVGID_3_"
   gradientUnits="userSpaceOnUse"
   x1="90.241898"
   y1="137.4384"
   x2="82.241898"
   y2="141.61839"
   gradientTransform="matrix(1,0,0,-1,0,329.9936)"><stop
     offset="0"
     style="stop-color:#A52714"
     id="stop993" /><stop
     offset="0.4"
     style="stop-color:#A52714;stop-opacity:0.5"
     id="stop995" /><stop
     offset="0.8"
     style="stop-color:#A52714;stop-opacity:0"
     id="stop997" /></linearGradient><linearGradient
   id="SVGID_4_"
   gradientUnits="userSpaceOnUse"
   x1="124.241"
   y1="149.07671"
   x2="120.661"
   y2="152.65669"
   gradientTransform="matrix(1,0,0,-1,0,329.9936)"><stop
     offset="0"
     style="stop-color:#A52714;stop-opacity:0.8"
     id="stop1004" /><stop
     offset="0.5"
     style="stop-color:#A52714;stop-opacity:0.21"
     id="stop1006" /><stop
     offset="1"
     style="stop-color:#A52714;stop-opacity:0"
     id="stop1008" /></linearGradient><linearGradient
   id="SVGID_5_"
   gradientUnits="userSpaceOnUse"
   x1="-597.0517"
   y1="1378.4709"
   x2="-546.98169"
   y2="1428.541"
   gradientTransform="matrix(2.67,0,0,2.67,1655.9818,-3551.5447)"><stop
     offset="0"
     style="stop-color:#FFFFFF;stop-opacity:0.1"
     id="stop1019" /><stop
     offset="1"
     style="stop-color:#FFFFFF;stop-opacity:0"
     id="stop1021" /></linearGradient><path
   id="SVGID_1_"
   d="m 176.8,137.4 c -0.4,-2.2 -2.4,-3.6 -4.6,-3.3 -0.8,0.1 -1.6,0.5 -2.2,1.1 L 149.2,156 132.9,124.9 c -1,-2 -3.4,-2.7 -5.4,-1.7 -0.7,0.4 -1.3,1 -1.7,1.7 l -8.9,17 -22.4,-41.8 c -1,-1.9 -3.5,-2.7 -5.4,-1.6 -1.1,0.6 -1.9,1.7 -2.1,2.9 L 65.3,240 l 57.9,32.5 c 3.6,2 8.1,2 11.7,0 L 193.3,240 Z" /></defs><sodipodi:namedview
   pagecolor="#ffffff"
   bordercolor="#666666"
   borderopacity="1"
   objecttolerance="10"
   gridtolerance="10"
   guidetolerance="10"
   inkscape:pageopacity="0"
   inkscape:pageshadow="2"
   inkscape:window-width="1256"
   inkscape:window-height="657"
   id="namedview1083"
   showgrid="false"
   inkscape:zoom="0.97074468"
   inkscape:cx="438.83836"
   inkscape:cy="250.41096"
   inkscape:window-x="0"
   inkscape:window-y="25"
   inkscape:window-maximized="0"
   inkscape:current-layer="layer2" />
<style
   type="text/css"
   id="style979">
	.st0{fill:#FFFFFF;}
	.st1{opacity:0.7;}
	.st2{fill:none;}
	.st3{clip-path:url(#SVGID_2_);}
	.st4{fill:#FFA000;}
	.st5{opacity:0.12;fill:url(#SVGID_3_);enable-background:new    ;}
	.st6{fill:#F57C00;}
	.st7{opacity:0.2;fill:url(#SVGID_4_);enable-background:new    ;}
	.st8{fill:#FFCA28;}
	.st9{fill:#FFFFFF;fill-opacity:0.2;}
	.st10{opacity:0.2;fill:#A52714;enable-background:new    ;}
	.st11{fill:url(#SVGID_5_);}
	.st12{opacity:0.54;}
	.st13{clip-path:url(#SVGID_7_);}
	.st14{opacity:0.12;fill:url(#SVGID_8_);enable-background:new    ;}
	.st15{opacity:0.2;fill:url(#SVGID_9_);enable-background:new    ;}
	.st16{fill:url(#SVGID_10_);}
	.st17{display:none;}
	.st18{display:inline;fill:#00FFFF;fill-opacity:0.2;}
</style>


<g
   id="guides"
   class="st17">
	<rect
   id="XMLID_13_"
   x="-0.6"
   y="272"
   class="st18"
   width="753.2"
   height="64" />
	<rect
   id="XMLID_10_"
   x="-0.6"
   y="0"
   class="st18"
   width="753.2"
   height="64" />
	<rect
   x="688.5"
   y="0"
   class="st18"
   width="64"
   height="336"
   id="rect1074" />
	<rect
   x="196.3"
   y="0"
   class="st18"
   width="48"
   height="336"
   id="rect1076" />
	<rect
   x="-0.5"
   y="0"
   class="st18"
   width="64"
   height="336"
   id="rect1078" />
</g>
<g
   inkscape:groupmode="layer"
   id="layer2"
   inkscape:label="background"><rect
     style="fill:#ffffff;fill-opacity:1;stroke-width:3.77953"
     id="rect2070"
     width="221.47945"
     height="225.60001"
     x="252.38356"
     y="69.01918" /></g><g
   inkscape:groupmode="layer"
   id="layer3"
   inkscape:label="firebase"
   style="display:inline"><g
     id="XMLID_19_"
     transform="translate(228.15753,-10.876712)"><rect
       id="XMLID_21_"
       x="33.299999"
       y="90"
       class="st2"
       width="192"
       height="192" /><g
       id="g1028"><defs
         id="defs986"><path
           id="path2043"
           d="m 176.8,137.4 c -0.4,-2.2 -2.4,-3.6 -4.6,-3.3 -0.8,0.1 -1.6,0.5 -2.2,1.1 L 149.2,156 132.9,124.9 c -1,-2 -3.4,-2.7 -5.4,-1.7 -0.7,0.4 -1.3,1 -1.7,1.7 l -8.9,17 -22.4,-41.8 c -1,-1.9 -3.5,-2.7 -5.4,-1.6 -1.1,0.6 -1.9,1.7 -2.1,2.9 L 65.3,240 l 57.9,32.5 c 3.6,2 8.1,2 11.7,0 L 193.3,240 Z" /></defs><clipPath
         id="clipPath1947"><use
           xlink:href="#SVGID_1_"
           style="overflow:visible"
           id="use1945"
           x="0"
           y="0"
           width="100%"
           height="100%" /></clipPath><g
         class="st3"
         clip-path="url(#SVGID_2_)"
         id="g1026"><path
           class="st4"
           d="M 65.3,240 87,101.4 c 0.3,-2.2 2.4,-3.7 4.6,-3.3 1.2,0.2 2.3,1 2.9,2.1 l 22.4,41.8 8.9,-17 c 1,-2 3.4,-2.7 5.4,-1.7 0.7,0.4 1.3,1 1.7,1.7 l 60.4,115 z"
           id="path991" /><linearGradient
           id="linearGradient1956"
           gradientUnits="userSpaceOnUse"
           x1="90.241898"
           y1="137.4384"
           x2="82.241898"
           y2="141.61839"
           gradientTransform="matrix(1,0,0,-1,0,329.9936)"><stop
             offset="0"
             style="stop-color:#A52714"
             id="stop1950" /><stop
             offset="0.4"
             style="stop-color:#A52714;stop-opacity:0.5"
             id="stop1952" /><stop
             offset="0.8"
             style="stop-color:#A52714;stop-opacity:0"
             id="stop1954" /></linearGradient><path
           class="st5"
           d="m 139.3,99 -106,-9 v 192 l 32,-42 z"
           id="path1000"
           style="fill:url(#SVGID_3_)" /><path
           class="st6"
           d="M 140.2,186 116.9,141.9 65.3,240 Z"
           id="path1002" /><linearGradient
           id="linearGradient1966"
           gradientUnits="userSpaceOnUse"
           x1="124.241"
           y1="149.07671"
           x2="120.661"
           y2="152.65669"
           gradientTransform="matrix(1,0,0,-1,0,329.9936)"><stop
             offset="0"
             style="stop-color:#A52714;stop-opacity:0.8"
             id="stop1960" /><stop
             offset="0.5"
             style="stop-color:#A52714;stop-opacity:0.21"
             id="stop1962" /><stop
             offset="1"
             style="stop-color:#A52714;stop-opacity:0"
             id="stop1964" /></linearGradient><path
           class="st7"
           d="m 33.3,90 h 192 v 192 h -192 z"
           id="path1011"
           style="fill:url(#SVGID_4_)" /><path
           class="st8"
           d="M 193.3,240 176.7,137.3 c -0.4,-2.2 -2.4,-3.6 -4.6,-3.3 -0.8,0.1 -1.6,0.5 -2.2,1.1 L 65.3,240 l 57.9,32.5 c 3.6,2 8.1,2 11.7,0 z"
           id="path1013" /><path
           class="st9"
           d="m 176.8,137.4 c -0.4,-2.2 -2.4,-3.6 -4.6,-3.3 -0.8,0.1 -1.6,0.5 -2.2,1.1 L 149.2,156 132.9,124.9 c -1,-2 -3.4,-2.7 -5.4,-1.7 -0.7,0.4 -1.3,1 -1.7,1.7 l -8.9,17 -22.4,-41.8 c -1,-1.9 -3.5,-2.7 -5.4,-1.6 -1.1,0.6 -1.9,1.7 -2.1,2.9 L 65.3,240 h -0.1 l 0.1,0.1 0.6,0.3 83.3,-83.4 20.8,-20.8 c 1.6,-1.6 4.1,-1.6 5.7,0 0.6,0.6 1,1.3 1.1,2.2 l 16.4,101.7 0.2,-0.1 z M 65.5,239.8 87,102.4 c 0.3,-2.2 2.4,-3.7 4.6,-3.3 1.2,0.2 2.3,1 2.9,2.1 l 22.4,41.8 8.9,-17 c 1,-2 3.4,-2.7 5.4,-1.7 0.7,0.4 1.3,1 1.7,1.7 l 16,30.4 z"
           id="path1015" /><path
           class="st10"
           d="m 134.9,271.5 c -3.6,2 -8.1,2 -11.7,0 l -57.8,-32.4 -0.1,0.9 57.9,32.5 c 3.6,2 8.1,2 11.7,0 l 58.4,-32.5 -0.1,-0.9 z"
           id="path1017" /><linearGradient
           id="linearGradient1976"
           gradientUnits="userSpaceOnUse"
           x1="-597.0517"
           y1="1378.4709"
           x2="-546.98169"
           y2="1428.541"
           gradientTransform="matrix(2.67,0,0,2.67,1655.9818,-3551.5447)"><stop
             offset="0"
             style="stop-color:#FFFFFF;stop-opacity:0.1"
             id="stop1972" /><stop
             offset="1"
             style="stop-color:#FFFFFF;stop-opacity:0"
             id="stop1974" /></linearGradient><path
           class="st11"
           d="m 176.8,137.4 c -0.4,-2.2 -2.4,-3.6 -4.6,-3.3 -0.8,0.1 -1.6,0.5 -2.2,1.1 L 149.2,156 132.9,124.9 c -1,-2 -3.4,-2.7 -5.4,-1.7 -0.7,0.4 -1.3,1 -1.7,1.7 l -8.9,17 -22.4,-41.8 c -1,-1.9 -3.5,-2.7 -5.4,-1.6 -1.1,0.6 -1.9,1.7 -2.1,2.9 L 65.3,240 l 57.9,32.5 c 3.6,2 8.1,2 11.7,0 L 193.3,240 Z"
           id="path1024"
           style="fill:url(#SVGID_5_)" /></g></g></g></g><g
   inkscape:groupmode="layer"
   id="layer1"
   inkscape:label="tw5"
   style="display:inline"><ellipse
     style="fill:#542617;fill-opacity:0.774193;stroke-width:4.35456"
     id="path1897"
     cx="356.4274"
     cy="232.2959"
     rx="46.356163"
     ry="7.7260275" /><path
     d="m 339.64529,225.39822 0.58175,0.17163 c 0.73123,-0.32711 2.20068,0.17844 2.98035,0.42563 -1.43552,-1.59141 -3.59812,-3.92834 -5.15641,-5.40174 -0.51135,-1.78354 -0.29315,-3.57824 -0.18322,-5.39925 l 0.0221,-0.15052 c -0.61426,1.45747 -1.39371,2.87457 -1.81252,4.40885 -0.49025,2.06985 2.17875,4.30305 3.21367,5.5831 z m 44.49003,8.75412 c -4.00596,-0.11321 -5.76796,-0.10342 -7.80821,-3.45838 l -1.58997,0.0455 c -1.85081,-0.0822 -1.07944,-0.0449 -2.31435,-0.10642 -2.06427,-0.0803 -1.73365,-2.0419 -2.09676,-3.07827 -0.58112,-3.51801 0.76869,-7.05423 0.72623,-10.57286 -0.0151,-1.2492 -1.78248,-5.67046 -2.41392,-7.25111 -1.97958,0.37265 -3.96994,0.44386 -5.9781,0.54385 -4.62912,-0.0118 -9.22657,-0.57821 -13.79088,-1.29805 -0.88938,3.67451 -3.53331,8.81728 -1.34795,12.55142 2.65264,3.86269 4.51402,4.93282 7.39935,5.16571 2.88533,0.2327 3.53684,3.49028 2.83875,4.65376 -0.61777,0.8041 -1.70382,0.95005 -2.62634,1.14487 l -1.84565,0.0866 c -1.45209,-0.0488 -2.75014,-0.44096 -4.04427,-1.04569 -2.16114,-1.20634 -4.3931,-3.71427 -6.05139,-5.51478 0.38611,0.719 0.61632,2.12266 0.26624,2.77582 -0.98048,1.38894 -5.22101,1.38044 -7.16312,0.51735 -2.20588,-0.98026 -7.5366,-7.86328 -8.36078,-13.01825 2.19241,-4.14675 5.38684,-7.75832 7.00289,-12.27336 -3.52256,-2.2477 -5.40919,-5.90648 -5.16428,-10.05135 l 0.0883,-0.47991 c -3.46605,0.64884 -1.66864,0.40744 -5.3972,0.68942 -11.87421,-0.0363 -22.31665,-8.0873 -16.43667,-20.6002 0.38239,-0.74094 0.74613,-1.41461 1.39432,-1.09289 0.52027,0.25816 0.44552,1.29371 0.18384,2.44209 -3.36108,14.95126 13.06588,15.06574 23.16381,12.29903 1.00201,-0.27473 2.99547,-2.12429 4.37614,-2.7375 2.25699,-1.00222 4.70674,-1.40903 7.13785,-1.70177 6.04684,-0.68919 13.31432,2.49612 17.00684,2.60026 3.69274,0.104 8.94562,-0.88401 12.17006,-0.67615 2.33982,0.10711 4.6372,0.52936 6.89461,1.13098 1.46119,-7.11986 1.5645,-12.36735 5.02847,-13.58218 2.03301,0.32108 3.59957,3.09153 4.75914,4.57176 l 0.006,-8.9e-4 c 2.36156,-0.0932 4.60884,0.50598 6.84328,1.17096 4.0453,-0.5741 7.43992,-2.8458 11.01237,-4.61298 -0.0118,0.0557 -0.0695,0.0746 -0.10434,0.11206 -3.51572,2.84331 -4.00679,7.6513 -3.59315,12.09741 0.15382,2.3071 -0.49811,4.81211 -1.30407,7.1743 -1.50819,3.84862 -4.42085,7.90531 -7.80138,7.69725 -1.27797,-0.0403 -2.02058,-0.76393 -2.97022,-1.53676 -0.18425,1.56511 -0.90842,2.9613 -1.60652,4.34528 -1.61211,3.06834 -5.8249,4.42065 -9.7257,7.69726 -3.90039,3.27661 1.24816,14.97858 2.49653,17.11075 1.24817,2.13237 4.73262,2.91244 3.38054,4.83698 -0.41365,0.63557 -1.04609,0.86288 -1.72204,1.10945 z"
     id="path1311"
     style="stroke-width:0.207025" /></g></svg>
